              ***********************************************

                PublicHash - Largest Bittorrent Community
      
                          http://publichash.com/
    
              *********************************************** 
http://www.imdb.com/title/tt1351685/?ref_=sr_1
Format: AVI
Format/Info: Audio Video Interleave
File size: 1.59 GiB
Duration: 1h 54mn
Overall bit rate: 1 988 Kbps
Writing library: VirtualDub build 35390/release

Video
ID: 0
Format: MPEG-4 Visual
Format profile: Advanced Simple@L5
Format settings, BVOP: Yes
Format settings, QPel: No
Format settings, GMC: No warppoints
Format settings, Matrix: Default (H.263)
Muxing mode: Packed bitstream
Codec ID: XVID
Codec ID/Hint: XviD
Duration: 1h 54mn
Bit rate: 1 786 Kbps
Width: 720 pixels
Height: 304 pixels
Display aspect ratio: 2.35:1
Frame rate: 23.976 fps
Color space: YUV
Chroma subsampling: 4:2:0
Bit depth: 8 bits
Scan type: Progressive
Bits/(Pixel*Frame): 0.340
Stream size: 1.43 GiB (90%)
Writing library: XviD 1.2.1 (UTC 2008-12-04)

Audio
ID: 1
Format: MPEG Audio
Format version: Version 1
Format profile: Layer 3
Mode: Joint stereo
Mode extension: MS Stereo
Codec ID: 55
Codec ID/Hint: MP3
Duration: 1h 54mn
Bit rate mode: Constant
Bit rate: 192 Kbps
Channel(s): 2 channels
Sampling rate: 48.0 KHz
Stream size: 157 MiB (10%)
Alignment: Split accross interleaves
Interleave, duration: 42 ms (1.00 video frame)
Interleave, preload duration: 500 ms

Gallery 
http://imgsure.com/?g=844105